<svg width="24" height="24" viewBox="0 0 24 24" fill="none" xmlns="http://www.w3.org/2000/svg">
<g clip-path="url(#clip0_59_2279)">
<path d="M14 6.5C14 7.89284 13.6121 9.25816 12.8799 10.443C12.1476 11.6278 11.0999 12.5853 9.8541 13.2082C8.60831 13.8311 7.21367 14.0948 5.82646 13.9697C4.43925 13.8446 3.11427 13.3357 2 12.5V20.25C2 21.2446 2.39509 22.1984 3.09835 22.9017C3.80161 23.6049 4.75544 24 5.75 24H14V17.75C14 16.7554 14.3951 15.8016 15.0983 15.0983C15.8016 14.3951 16.7554 14 17.75 14H24V5.75C24 4.75544 23.6049 3.80161 22.9017 3.09835C22.1984 2.39509 21.2446 2 20.25 2H12.5C13.4756 3.2972 14.0022 4.87687 14 6.5ZM15.56 24H15.5V17.75C15.5 17.1533 15.7371 16.581 16.159 16.159C16.581 15.7371 17.1533 15.5 17.75 15.5H24V15.56L15.56 24ZM6.5 13C8.22391 13 9.87721 12.3152 11.0962 11.0962C12.3152 9.87721 13 8.22391 13 6.5C13 4.77609 12.3152 3.12279 11.0962 1.90381C9.87721 0.684819 8.22391 0 6.5 0C4.77609 0 3.12279 0.684819 1.90381 1.90381C0.684819 3.12279 0 4.77609 0 6.5C0 8.22391 0.684819 9.87721 1.90381 11.0962C3.12279 12.3152 4.77609 13 6.5 13ZM6.5 2C6.63261 2 6.75979 2.05268 6.85355 2.14645C6.94732 2.24021 7 2.36739 7 2.5V6H10.5C10.6326 6 10.7598 6.05268 10.8536 6.14645C10.9473 6.24021 11 6.36739 11 6.5C11 6.63261 10.9473 6.75979 10.8536 6.85355C10.7598 6.94732 10.6326 7 10.5 7H7V10.5C7 10.6326 6.94732 10.7598 6.85355 10.8536C6.75979 10.9473 6.63261 11 6.5 11C6.36739 11 6.24021 10.9473 6.14645 10.8536C6.05268 10.7598 6 10.6326 6 10.5V7H2.5C2.36739 7 2.24021 6.94732 2.14645 6.85355C2.05268 6.75979 2 6.63261 2 6.5C2 6.36739 2.05268 6.24021 2.14645 6.14645C2.24021 6.05268 2.36739 6 2.5 6H6V2.5C6 2.36739 6.05268 2.24021 6.14645 2.14645C6.24021 2.05268 6.36739 2 6.5 2Z" fill="#D5DDD8"/>
</g>
<defs>
<clipPath id="clip0_59_2279">
<rect width="24" height="24" fill="white"/>
</clipPath>
</defs>
</svg>
