<svg width="24" height="24" viewBox="0 0 24 24" fill="none" xmlns="http://www.w3.org/2000/svg">
<path fill-rule="evenodd" clip-rule="evenodd" d="M15.707 11.293C15.8945 11.4805 15.9998 11.7348 15.9998 12C15.9998 12.2651 15.8945 12.5194 15.707 12.707L10.05 18.364C9.95775 18.4595 9.8474 18.5357 9.7254 18.5881C9.60339 18.6405 9.47217 18.6681 9.33939 18.6692C9.20661 18.6704 9.07493 18.6451 8.95204 18.5948C8.82914 18.5445 8.71749 18.4702 8.6236 18.3764C8.5297 18.2825 8.45545 18.1708 8.40517 18.0479C8.35489 17.925 8.32959 17.7933 8.33074 17.6606C8.3319 17.5278 8.35948 17.3966 8.41189 17.2746C8.4643 17.1526 8.54048 17.0422 8.63599 16.95L13.586 12L8.63599 7.04996C8.45383 6.86136 8.35304 6.60876 8.35532 6.34656C8.3576 6.08436 8.46276 5.83355 8.64817 5.64814C8.83358 5.46273 9.08439 5.35756 9.34659 5.35529C9.60879 5.35301 9.86139 5.4538 10.05 5.63596L15.707 11.293Z" fill="#D5DDD8"/>
</svg>
