<svg width="24" height="24" viewBox="0 0 24 24" fill="none" xmlns="http://www.w3.org/2000/svg">
<g clip-path="url(#clip0_59_2274)">
<path fill-rule="evenodd" clip-rule="evenodd" d="M11.2684 8.62353C11.456 8.43606 11.7103 8.33074 11.9754 8.33074C12.2406 8.33074 12.4949 8.43606 12.6824 8.62353L18.3394 14.2805C18.4349 14.3728 18.5111 14.4831 18.5635 14.6051C18.6159 14.7271 18.6435 14.8583 18.6447 14.9911C18.6458 15.1239 18.6205 15.2556 18.5702 15.3785C18.52 15.5014 18.4457 15.613 18.3518 15.7069C18.2579 15.8008 18.1463 15.8751 18.0234 15.9254C17.9005 15.9756 17.7688 16.0009 17.636 15.9998C17.5032 15.9986 17.372 15.971 17.25 15.9186C17.128 15.8662 17.0177 15.79 16.9254 15.6945L11.9754 10.7445L7.02542 15.6945C6.83682 15.8767 6.58422 15.9775 6.32202 15.9752C6.05983 15.9729 5.80901 15.8678 5.62361 15.6823C5.4382 15.4969 5.33303 15.2461 5.33075 14.9839C5.32847 14.7217 5.42927 14.4691 5.61142 14.2805L11.2684 8.62353Z" fill="#D5DDD8"/>
</g>
<defs>
<clipPath id="clip0_59_2274">
<rect width="24" height="24" fill="white"/>
</clipPath>
</defs>
</svg>
