<svg width="24" height="24" viewBox="0 0 24 24" fill="none" xmlns="http://www.w3.org/2000/svg">
<path d="M6.4 9.6C5.12696 9.6 3.90606 9.09429 3.00589 8.19411C2.10571 7.29394 1.6 6.07304 1.6 4.8C1.6 3.52696 2.10571 2.30606 3.00589 1.40589C3.90606 0.505713 5.12696 0 6.4 0L17.6 0C18.873 0 20.0939 0.505713 20.9941 1.40589C21.8943 2.30606 22.4 3.52696 22.4 4.8C22.4 6.07304 21.8943 7.29394 20.9941 8.19411C20.0939 9.09429 18.873 9.6 17.6 9.6H14.4V5.6C14.4 4.53913 13.9786 3.52172 13.2284 2.77157C12.4783 2.02143 11.4609 1.6 10.4 1.6C9.33913 1.6 8.32172 2.02143 7.57157 2.77157C6.82143 3.52172 6.4 4.53913 6.4 5.6V9.6Z" fill="#D5DDD8"/>
<path d="M10.4 3.20001C9.76348 3.20001 9.15303 3.45287 8.70294 3.90296C8.25286 4.35304 8 4.96349 8 5.60001V12.88C7.09651 13.0644 6.28448 13.5554 5.70135 14.2697C5.11823 14.984 4.79981 15.8779 4.8 16.8C4.8 18.7096 5.55857 20.5409 6.90883 21.8912C8.25909 23.2414 10.0904 24 12 24H12.8C14.9217 24 16.9566 23.1572 18.4569 21.6569C19.9571 20.1566 20.8 18.1217 20.8 16V14.6352C20.8 13.7241 20.4381 12.8504 19.7939 12.2062C19.1496 11.5619 18.2759 11.2 17.3648 11.2H12.8V5.60001C12.8 4.96349 12.5471 4.35304 12.0971 3.90296C11.647 3.45287 11.0365 3.20001 10.4 3.20001Z" fill="#D5DDD8"/>
</svg>
