<svg width="24" height="24" viewBox="0 0 24 24" fill="none" xmlns="http://www.w3.org/2000/svg">
<path d="M7 2.625C7 2.45924 6.93415 2.30027 6.81694 2.18306C6.69973 2.06585 6.54076 2 6.375 2C6.20924 2 6.05027 2.06585 5.93306 2.18306C5.81585 2.30027 5.75 2.45924 5.75 2.625V3.25H4.5C3.83696 3.25 3.20107 3.51339 2.73223 3.98223C2.26339 4.45107 2 5.08696 2 5.75L2 7H22V5.75C22 5.08696 21.7366 4.45107 21.2678 3.98223C20.7989 3.51339 20.163 3.25 19.5 3.25H18.25V2.625C18.25 2.45924 18.1842 2.30027 18.0669 2.18306C17.9497 2.06585 17.7908 2 17.625 2C17.4592 2 17.3003 2.06585 17.1831 2.18306C17.0658 2.30027 17 2.45924 17 2.625V3.25H7V2.625ZM22 10.75V8.25H2V14.5H8.25C8.58152 14.5 8.89946 14.6317 9.13388 14.8661C9.3683 15.1005 9.5 15.4185 9.5 15.75C9.5 16.0815 9.3683 16.3995 9.13388 16.6339C8.89946 16.8683 8.58152 17 8.25 17H2V19.5C2 20.163 2.26339 20.7989 2.73223 21.2678C3.20107 21.7366 3.83696 22 4.5 22H19.5C20.163 22 20.7989 21.7366 21.2678 21.2678C21.7366 20.7989 22 20.163 22 19.5V13.25H14.5C14.1685 13.25 13.8505 13.1183 13.6161 12.8839C13.3817 12.6495 13.25 12.3315 13.25 12C13.25 11.6685 13.3817 11.3505 13.6161 11.1161C13.8505 10.8817 14.1685 10.75 14.5 10.75H22Z" fill="#D5DDD8"/>
</svg>
