<svg width="24" height="24" viewBox="0 0 24 24" fill="none" xmlns="http://www.w3.org/2000/svg">
<path d="M7 0C7.82969 0 8.5 0.670312 8.5 1.5V3H14.5V1.5C14.5 0.670312 15.1703 0 16 0C16.8297 0 17.5 0.670312 17.5 1.5V3H19.75C20.9922 3 22 4.00781 22 5.25V7.5H1V5.25C1 4.00781 2.00781 3 3.25 3H5.5V1.5C5.5 0.670312 6.17031 0 7 0ZM1 9H22V21.75C22 22.9922 20.9922 24 19.75 24H3.25C2.00781 24 1 22.9922 1 21.75V9ZM4.75 12C4.3375 12 4 12.3375 4 12.75V17.25C4 17.6625 4.3375 18 4.75 18H9.25C9.6625 18 10 17.6625 10 17.25V12.75C10 12.3375 9.6625 12 9.25 12H4.75Z" fill="#D5DDD8"/>
</svg>
