<svg width="24" height="24" viewBox="0 0 24 24" fill="none" xmlns="http://www.w3.org/2000/svg">
<g clip-path="url(#clip0_59_2234)">
<path fill-rule="evenodd" clip-rule="evenodd" d="M6 2C5.46957 2 4.96086 2.21071 4.58579 2.58579C4.21071 2.96086 4 3.46957 4 4V5C3.73478 5 3.48043 5.10536 3.29289 5.29289C3.10536 5.48043 3 5.73478 3 6C3 6.26522 3.10536 6.51957 3.29289 6.70711C3.48043 6.89464 3.73478 7 4 7V9C3.73478 9 3.48043 9.10536 3.29289 9.29289C3.10536 9.48043 3 9.73478 3 10C3 10.2652 3.10536 10.5196 3.29289 10.7071C3.48043 10.8946 3.73478 11 4 11V13C3.73478 13 3.48043 13.1054 3.29289 13.2929C3.10536 13.4804 3 13.7348 3 14C3 14.2652 3.10536 14.5196 3.29289 14.7071C3.48043 14.8946 3.73478 15 4 15V17C3.73478 17 3.48043 17.1054 3.29289 17.2929C3.10536 17.4804 3 17.7348 3 18C3 18.2652 3.10536 18.5196 3.29289 18.7071C3.48043 18.8946 3.73478 19 4 19V20C4 20.5304 4.21071 21.0391 4.58579 21.4142C4.96086 21.7893 5.46957 22 6 22H18C18.5304 22 19.0391 21.7893 19.4142 21.4142C19.7893 21.0391 20 20.5304 20 20V4C20 3.46957 19.7893 2.96086 19.4142 2.58579C19.0391 2.21071 18.5304 2 18 2H6ZM8.5 6C8.10218 6 7.72064 6.15804 7.43934 6.43934C7.15804 6.72064 7 7.10218 7 7.5V8.5C7 8.89782 7.15804 9.27936 7.43934 9.56066C7.72064 9.84196 8.10218 10 8.5 10H15.5C15.8978 10 16.2794 9.84196 16.5607 9.56066C16.842 9.27936 17 8.89782 17 8.5V7.5C17 7.10218 16.842 6.72064 16.5607 6.43934C16.2794 6.15804 15.8978 6 15.5 6H8.5Z" fill="#D5DDD8"/>
</g>
<defs>
<clipPath id="clip0_59_2234">
<rect width="24" height="24" fill="white"/>
</clipPath>
</defs>
</svg>
