<svg width="24" height="24" viewBox="0 0 24 24" fill="none" xmlns="http://www.w3.org/2000/svg">
<path d="M3 17.75C3 18.612 3.34241 19.4386 3.9519 20.0481C4.5614 20.6576 5.38805 21 6.25 21H11.165L11.521 19.577C11.683 18.929 12.018 18.337 12.491 17.865L18.393 11.962C18.7317 11.6228 19.1407 11.3619 19.5911 11.1978C20.0415 11.0336 20.5224 10.9702 21 11.012V6.25C21 5.38805 20.6576 4.5614 20.0481 3.9519C19.4386 3.34241 18.612 3 17.75 3H11V7.75C11 8.1768 10.9159 8.59941 10.7526 8.99372C10.5893 9.38803 10.3499 9.74631 10.0481 10.0481C9.74631 10.3499 9.38803 10.5893 8.99372 10.7526C8.59941 10.9159 8.1768 11 7.75 11H3V17.75ZM9.5 3.44L3.44 9.5H7.75C8.21413 9.5 8.65925 9.31563 8.98744 8.98744C9.31563 8.65925 9.5 8.21413 9.5 7.75V3.44ZM19.1 12.67L13.197 18.572C12.8536 18.9165 12.6097 19.3473 12.491 19.819L12.033 21.65C11.9875 21.8322 11.9899 22.023 12.04 22.204C12.0902 22.385 12.1864 22.5498 12.3192 22.6826C12.452 22.8153 12.617 22.9114 12.798 22.9614C12.979 23.0114 13.1699 23.0137 13.352 22.968L15.182 22.511C15.6541 22.3922 16.0854 22.1479 16.43 21.804L22.332 15.902C22.7441 15.4701 22.9709 14.8941 22.9639 14.2971C22.9569 13.7002 22.7166 13.1297 22.2945 12.7075C21.8723 12.2854 21.3018 12.0451 20.7049 12.0381C20.1079 12.0311 19.5319 12.2579 19.1 12.67Z" fill="#D5DDD8"/>
</svg>
