<svg width="24" height="24" viewBox="0 0 24 24" fill="none" xmlns="http://www.w3.org/2000/svg">
<path d="M7.03662 5.68896L2.56494 18H0.737305L5.88623 4.49219H7.06445L7.03662 5.68896ZM10.7847 18L6.30371 5.68896L6.27588 4.49219H7.4541L12.6216 18H10.7847ZM10.5527 12.9995V14.4653H2.96387V12.9995H10.5527Z" fill="#D5DDD8"/>
<path d="M14.1616 3.75H15.8872V16.0518L15.7388 18H14.1616V3.75ZM22.6689 12.8975V13.0923C22.6689 13.8221 22.5824 14.4993 22.4092 15.124C22.236 15.7425 21.9824 16.2806 21.6484 16.7383C21.3145 17.196 20.9062 17.5516 20.4238 17.8052C19.9414 18.0588 19.3879 18.1855 18.7632 18.1855C18.1261 18.1855 17.5664 18.0773 17.084 17.8608C16.6077 17.6382 16.2057 17.3197 15.8779 16.9053C15.5501 16.4909 15.2873 15.9899 15.0894 15.4023C14.8976 14.8148 14.7646 14.153 14.6904 13.417V12.5635C14.7646 11.8213 14.8976 11.1564 15.0894 10.5688C15.2873 9.98128 15.5501 9.48031 15.8779 9.06592C16.2057 8.64535 16.6077 8.32682 17.084 8.11035C17.5602 7.8877 18.1138 7.77637 18.7446 7.77637C19.3755 7.77637 19.9352 7.90007 20.4238 8.14746C20.9124 8.38867 21.3206 8.73503 21.6484 9.18652C21.9824 9.63802 22.236 10.1792 22.4092 10.8101C22.5824 11.4347 22.6689 12.1305 22.6689 12.8975ZM20.9434 13.0923V12.8975C20.9434 12.3965 20.897 11.9264 20.8042 11.4873C20.7114 11.042 20.563 10.6523 20.3589 10.3184C20.1548 9.97819 19.8857 9.71224 19.5518 9.52051C19.2178 9.32259 18.8065 9.22363 18.3179 9.22363C17.8849 9.22363 17.5076 9.29785 17.186 9.44629C16.8706 9.59473 16.6016 9.79574 16.3789 10.0493C16.1562 10.2967 15.9738 10.5812 15.8315 10.9028C15.6955 11.2183 15.5934 11.5461 15.5254 11.8862V14.1221C15.6243 14.555 15.7852 14.9725 16.0078 15.3745C16.2367 15.7703 16.5397 16.0951 16.917 16.3486C17.3005 16.6022 17.7736 16.729 18.3364 16.729C18.8003 16.729 19.1961 16.6362 19.5239 16.4507C19.8579 16.259 20.127 15.9961 20.3311 15.6621C20.5413 15.3281 20.696 14.9416 20.7949 14.5024C20.8939 14.0633 20.9434 13.5933 20.9434 13.0923Z" fill="#D5DDD8"/>
</svg>
