<svg width="24" height="24" viewBox="0 0 24 24" fill="none" xmlns="http://www.w3.org/2000/svg">
<path d="M8.25131 15.7522L15.7514 8.25121M10.7513 4.50071L11.3301 3.83063C12.5024 2.65838 14.0923 1.99988 15.75 2C17.4077 2.00012 18.9975 2.65884 20.1696 3.83125C21.3417 5.00366 22.0001 6.59373 22 8.25166C21.9999 9.90958 21.3412 11.4996 20.169 12.6718L19.5015 13.2519M13.2514 19.5027L12.7551 20.1703C11.5689 21.3426 9.96838 22 8.30069 22C6.63301 22 5.03253 21.3426 3.84626 20.1703C3.26139 19.5924 2.79704 18.9041 2.48012 18.1454C2.16319 17.3867 2 16.5726 2 15.7503C2 14.9281 2.16319 14.114 2.48012 13.3553C2.79704 12.5965 3.26139 11.9083 3.84626 11.3304L4.50127 10.7515" stroke="#D5DDD8" stroke-width="2" stroke-linecap="round" stroke-linejoin="round"/>
</svg>
