<svg width="24" height="24" viewBox="0 0 24 24" fill="none" xmlns="http://www.w3.org/2000/svg">
<path d="M5.75 3H18.25C18.9793 3 19.6788 3.28973 20.1945 3.80546C20.7103 4.32118 21 5.02065 21 5.75V18.25C21 18.9793 20.7103 19.6788 20.1945 20.1945C19.6788 20.7103 18.9793 21 18.25 21H5.75C5.02065 21 4.32118 20.7103 3.80546 20.1945C3.28973 19.6788 3 18.9793 3 18.25V5.75C3 5.02065 3.28973 4.32118 3.80546 3.80546C4.32118 3.28973 5.02065 3 5.75 3ZM5.75 4.5C5.06 4.5 4.5 5.06 4.5 5.75V18.25C4.5 18.94 5.06 19.5 5.75 19.5H18.25C18.94 19.5 19.5 18.94 19.5 18.25V5.75C19.5 5.06 18.94 4.5 18.25 4.5H5.75Z" fill="#D5DDD8"/>
</svg>
