<svg width="24" height="24" viewBox="0 0 24 24" fill="none" xmlns="http://www.w3.org/2000/svg">
<g clip-path="url(#clip0_59_2247)">
<path d="M4.16667 0C3.0616 0 2.00179 0.438987 1.22039 1.22039C0.438987 2.00179 0 3.0616 0 4.16667V19.8333C0 20.9384 0.438987 21.9982 1.22039 22.7796C2.00179 23.561 3.0616 24 4.16667 24H13.3333V17.5C13.3333 16.3949 13.7723 15.3351 14.5537 14.5537C15.3351 13.7723 16.3949 13.3333 17.5 13.3333H24V4.16667C24 3.0616 23.561 2.00179 22.7796 1.22039C21.9982 0.438987 20.9384 0 19.8333 0H4.16667ZM23.6313 15H17.5C16.837 15 16.2011 15.2634 15.7322 15.7322C15.2634 16.2011 15 16.837 15 17.5V23.6313C15.4584 23.4235 15.8757 23.1349 16.232 22.7793L22.7793 16.2327C23.1349 15.8762 23.4235 15.4586 23.6313 15Z" fill="#D5DDD8"/>
</g>
<defs>
<clipPath id="clip0_59_2247">
<rect width="24" height="24" fill="white"/>
</clipPath>
</defs>
</svg>
