<svg width="24" height="24" viewBox="0 0 24 24" fill="none" xmlns="http://www.w3.org/2000/svg">
<path d="M21 9V10.5H12.75C11.7554 10.5 10.8016 10.8951 10.0983 11.5983C9.39509 12.3016 9 13.2554 9 14.25V21H6.75C5.75544 21 4.80161 20.6049 4.09835 19.9017C3.39509 19.1984 3 18.2446 3 17.25V9H21ZM17.25 3C18.2446 3 19.1984 3.39509 19.9017 4.09835C20.6049 4.80161 21 5.75544 21 6.75V7.5H3V6.75C3 5.75544 3.39509 4.80161 4.09835 4.09835C4.80161 3.39509 5.75544 3 6.75 3H17.25ZM10.5 14.25C10.5 13.6533 10.7371 13.081 11.159 12.659C11.581 12.2371 12.1533 12 12.75 12H21.75C22.3467 12 22.919 12.2371 23.341 12.659C23.7629 13.081 24 13.6533 24 14.25V21.75C24 22.3467 23.7629 22.919 23.341 23.341C22.919 23.7629 22.3467 24 21.75 24H12.75C12.1533 24 11.581 23.7629 11.159 23.341C10.7371 22.919 10.5 22.3467 10.5 21.75V14.25ZM21 20.25C21 20.0511 20.921 19.8603 20.7803 19.7197C20.6397 19.579 20.4489 19.5 20.25 19.5H14.25C14.0511 19.5 13.8603 19.579 13.7197 19.7197C13.579 19.8603 13.5 20.0511 13.5 20.25C13.5 20.4489 13.579 20.6397 13.7197 20.7803C13.8603 20.921 14.0511 21 14.25 21H20.25C20.4489 21 20.6397 20.921 20.7803 20.7803C20.921 20.6397 21 20.4489 21 20.25ZM14.25 15C14.0511 15 13.8603 15.079 13.7197 15.2197C13.579 15.3603 13.5 15.5511 13.5 15.75C13.5 15.9489 13.579 16.1397 13.7197 16.2803C13.8603 16.421 14.0511 16.5 14.25 16.5H20.25C20.4489 16.5 20.6397 16.421 20.7803 16.2803C20.921 16.1397 21 15.9489 21 15.75C21 15.5511 20.921 15.3603 20.7803 15.2197C20.6397 15.079 20.4489 15 20.25 15H14.25Z" fill="#D5DDD8"/>
</svg>
