<svg width="24" height="24" viewBox="0 0 24 24" fill="none" xmlns="http://www.w3.org/2000/svg">
<path fill-rule="evenodd" clip-rule="evenodd" d="M11.3517 2.22907C11.5207 2.0824 11.7499 2 11.9889 2C12.2279 2 12.4571 2.0824 12.6261 2.22907L17.7248 6.65489C17.8109 6.72706 17.8796 6.81339 17.9268 6.90884C17.9741 7.0043 17.9989 7.10696 18 7.21084C18.001 7.31472 17.9782 7.41774 17.9329 7.51389C17.8876 7.61004 17.8206 7.69739 17.736 7.77085C17.6514 7.84431 17.5508 7.9024 17.44 7.94174C17.3292 7.98108 17.2105 8.00087 17.0909 7.99997C16.9712 7.99907 16.8529 7.97749 16.743 7.93648C16.633 7.89548 16.5335 7.83588 16.4504 7.76115L11.9889 3.88846L7.52745 7.76115C7.35747 7.90367 7.1298 7.98252 6.89348 7.98074C6.65716 7.97896 6.4311 7.89668 6.26399 7.75162C6.09688 7.60657 6.00209 7.41034 6.00003 7.20521C5.99798 7.00007 6.08883 6.80245 6.25301 6.65489L11.3517 2.22907Z" fill="#D5DDD8"/>
<path fill-rule="evenodd" clip-rule="evenodd" d="M12.6483 21.7709C12.4793 21.9176 12.2501 22 12.0111 22C11.7721 22 11.5429 21.9176 11.3739 21.7709L6.27516 17.3451C6.18907 17.2729 6.12041 17.1866 6.07317 17.0912C6.02594 16.9957 6.00107 16.893 6.00003 16.7892C5.99899 16.6853 6.0218 16.5823 6.06712 16.4861C6.11244 16.39 6.17936 16.3026 6.26399 16.2291C6.34861 16.1557 6.44925 16.0976 6.56001 16.0583C6.67078 16.0189 6.78946 15.9991 6.90914 16C7.02881 16.0009 7.14708 16.0225 7.25705 16.0635C7.36701 16.1045 7.46646 16.1641 7.54961 16.2388L12.0111 20.1115L16.4725 16.2388C16.6425 16.0963 16.8702 16.0175 17.1065 16.0193C17.3428 16.021 17.5689 16.1033 17.736 16.2484C17.9031 16.3934 17.9979 16.5897 18 16.7948C18.002 16.9999 17.9112 17.1976 17.747 17.3451L12.6483 21.7709Z" fill="#D5DDD8"/>
</svg>
