<svg width="24" height="24" viewBox="0 0 24 24" fill="none" xmlns="http://www.w3.org/2000/svg">
<g clip-path="url(#clip0_59_2228)">
<path d="M0 2.4C0 1.76348 0.252856 1.15303 0.702944 0.702944C1.15303 0.252856 1.76348 0 2.4 0L16.1376 0C16.7739 0.000560167 17.3839 0.253784 17.8336 0.704L23.2976 6.1664C23.7472 6.61632 23.9999 7.22632 24 7.8624V21.6C24 22.2365 23.7471 22.847 23.2971 23.2971C22.847 23.7471 22.2365 24 21.6 24H17.6V18.4C17.6 17.7635 17.3471 17.153 16.8971 16.7029C16.447 16.2529 15.8365 16 15.2 16H8.8C8.16348 16 7.55303 16.2529 7.10294 16.7029C6.65286 17.153 6.4 17.7635 6.4 18.4V24H2.4C1.76348 24 1.15303 23.7471 0.702944 23.2971C0.252856 22.847 0 22.2365 0 21.6L0 2.4Z" fill="#D5DDD8"/>
<path d="M8 24H16V18.4C16 18.1878 15.9157 17.9843 15.7657 17.8343C15.6157 17.6843 15.4122 17.6 15.2 17.6H8.8C8.58783 17.6 8.38434 17.6843 8.23431 17.8343C8.08429 17.9843 8 18.1878 8 18.4V24Z" fill="#D5DDD8"/>
</g>
<defs>
<clipPath id="clip0_59_2228">
<rect width="24" height="24" fill="white"/>
</clipPath>
</defs>
</svg>
