<svg width="24" height="24" viewBox="0 0 24 24" fill="none" xmlns="http://www.w3.org/2000/svg">
<path fill-rule="evenodd" clip-rule="evenodd" d="M14.4663 1.1672C14.0573 1 13.5379 1 12.5001 1C11.4622 1 10.9439 1 10.5339 1.1672C9.98947 1.38963 9.55614 1.81814 9.32915 2.3585C9.22526 2.6038 9.18547 2.8909 9.16889 3.3078C9.16152 3.60986 9.07686 3.90507 8.92292 4.16549C8.76897 4.42592 8.55083 4.64296 8.28912 4.7961C8.02248 4.94361 7.72274 5.02176 7.41768 5.0233C7.11261 5.02484 6.81209 4.94972 6.54396 4.8049C6.17039 4.6091 5.89961 4.5013 5.63214 4.4661C5.04698 4.38963 4.45515 4.54618 3.98535 4.9017C3.63388 5.1679 3.37415 5.6123 2.8558 6.5C2.33634 7.3877 2.07772 7.831 2.01914 8.2655C1.94177 8.8441 2.10092 9.4293 2.46123 9.8924C2.62481 10.1036 2.8558 10.2807 3.21279 10.5029C3.73999 10.8296 4.07819 11.3862 4.07819 12C4.07819 12.6138 3.73999 13.1704 3.21389 13.496C2.8558 13.7193 2.62481 13.8964 2.46013 14.1076C2.28227 14.3363 2.15173 14.5979 2.07604 14.8771C2.00035 15.1564 1.98101 15.4478 2.01914 15.7345C2.07772 16.1679 2.33634 16.6123 2.8558 17.5C3.37526 18.3877 3.63388 18.831 3.98535 19.0983C4.45397 19.4536 5.04637 19.6098 5.63214 19.5339C5.89961 19.4987 6.17039 19.3909 6.54396 19.1951C6.81223 19.0501 7.11295 18.9749 7.41823 18.9764C7.72351 18.9779 8.02345 19.0562 8.29023 19.2039C8.82737 19.5119 9.14568 20.0784 9.16889 20.6922C9.18547 21.1102 9.22526 21.3962 9.32915 21.6415C9.55461 22.1805 9.98787 22.6095 10.5339 22.8328C10.9428 23 11.4622 23 12.5001 23C13.5379 23 14.0573 23 14.4663 22.8328C15.0107 22.6104 15.444 22.1819 15.671 21.6415C15.7749 21.3962 15.8147 21.1102 15.8312 20.6922C15.8533 20.0784 16.1727 19.5108 16.711 19.2039C16.9776 19.0564 17.2774 18.9782 17.5824 18.9767C17.8875 18.9752 18.188 19.0503 18.4562 19.1951C18.8297 19.3909 19.1005 19.4987 19.368 19.5339C19.9538 19.6109 20.5462 19.4536 21.0148 19.0983C21.3662 18.8321 21.626 18.3877 22.1443 17.5C22.6638 16.6123 22.9224 16.169 22.981 15.7345C23.019 15.4477 22.9994 15.1563 22.9236 14.877C22.8477 14.5978 22.7169 14.3363 22.5389 14.1076C22.3753 13.8964 22.1443 13.7193 21.7873 13.4971C21.2601 13.1704 20.9219 12.6138 20.9219 12C20.9219 11.3862 21.2601 10.8296 21.7862 10.504C22.1443 10.2807 22.3753 10.1036 22.54 9.8924C22.7178 9.66366 22.8484 9.40212 22.9241 9.12287C22.9998 8.84363 23.0191 8.55223 22.981 8.2655C22.9224 7.8321 22.6638 7.3877 22.1443 6.5C21.6249 5.6123 21.3662 5.169 21.0148 4.9017C20.545 4.54618 19.9531 4.38963 19.368 4.4661C19.1005 4.5013 18.8297 4.6091 18.4562 4.8049C18.1879 4.94991 17.8872 5.02514 17.5819 5.0236C17.2766 5.02206 16.9767 4.94381 16.7099 4.7961C16.4484 4.64283 16.2305 4.42572 16.0767 4.16531C15.923 3.90489 15.8385 3.60976 15.8312 3.3078C15.8147 2.8898 15.7749 2.6038 15.671 2.3585C15.5586 2.09091 15.3944 1.84797 15.1877 1.64356C14.981 1.43916 14.7359 1.27729 14.4663 1.1672ZM12.5001 15.3C14.3458 15.3 15.8412 13.8227 15.8412 12C15.8412 10.1773 14.3447 8.7 12.5001 8.7C10.6543 8.7 9.15894 10.1773 9.15894 12C9.15894 13.8227 10.6554 15.3 12.5001 15.3Z" fill="#D5DDD8"/>
</svg>
