<svg width="24" height="24" viewBox="0 0 24 24" fill="none" xmlns="http://www.w3.org/2000/svg">
<path d="M6.75 4.5C6.33579 4.5 6 4.16421 6 3.75C6 3.33579 6.33579 3 6.75 3H18.25C18.9793 3 19.6788 3.28973 20.1945 3.80546C20.7103 4.32118 21 5.02065 21 5.75V17.25C21 17.6642 20.6642 18 20.25 18C19.8358 18 19.5 17.6642 19.5 17.25V5.75C19.5 5.06 18.94 4.5 18.25 4.5H6.75Z" fill="#D5DDD8"/>
<path fill-rule="evenodd" clip-rule="evenodd" d="M15.25 6H5.75C5.02065 6 4.32118 6.28973 3.80546 6.80546C3.28973 7.32118 3 8.02065 3 8.75V18.25C3 18.9793 3.28973 19.6788 3.80546 20.1945C4.32118 20.7103 5.02065 21 5.75 21H15.25C15.9793 21 16.6788 20.7103 17.1945 20.1945C17.7103 19.6788 18 18.9793 18 18.25V8.75C18 8.02065 17.7103 7.32118 17.1945 6.80546C16.6788 6.28973 15.9793 6 15.25 6ZM4.5 8.75C4.5 8.06 5.06 7.5 5.75 7.5H15.25C15.94 7.5 16.5 8.06 16.5 8.75V18.25C16.5 18.94 15.94 19.5 15.25 19.5H5.75C5.06 19.5 4.5 18.94 4.5 18.25V8.75Z" fill="#D5DDD8"/>
</svg>
