<svg width="24" height="24" viewBox="0 0 24 24" fill="none" xmlns="http://www.w3.org/2000/svg">
<path d="M8.7251 16.2837V11.1162C8.7251 10.7204 8.64469 10.3771 8.48389 10.0864C8.32926 9.78955 8.09424 9.56071 7.77881 9.3999C7.46338 9.2391 7.07373 9.15869 6.60986 9.15869C6.17692 9.15869 5.79655 9.23291 5.46875 9.38135C5.14714 9.52979 4.89355 9.72461 4.70801 9.96582C4.52865 10.207 4.43896 10.4668 4.43896 10.7451H2.72266C2.72266 10.3864 2.81543 10.0308 3.00098 9.67822C3.18652 9.32568 3.45247 9.00716 3.79883 8.72266C4.15137 8.43197 4.57194 8.20312 5.06055 8.03613C5.55534 7.86296 6.10579 7.77637 6.71191 7.77637C7.44173 7.77637 8.08496 7.90007 8.6416 8.14746C9.20443 8.39486 9.64355 8.76904 9.95898 9.27002C10.2806 9.76481 10.4414 10.3864 10.4414 11.1348V15.8105C10.4414 16.1445 10.4692 16.5002 10.5249 16.8774C10.5868 17.2547 10.6764 17.5794 10.7939 17.8516V18H9.00342C8.91683 17.8021 8.8488 17.5392 8.79932 17.2114C8.74984 16.8774 8.7251 16.5682 8.7251 16.2837ZM9.02197 11.9141L9.04053 13.1201H7.30566C6.81706 13.1201 6.38102 13.1603 5.99756 13.2407C5.6141 13.3149 5.29248 13.4294 5.03271 13.584C4.77295 13.7386 4.57503 13.9334 4.43896 14.1685C4.3029 14.3973 4.23486 14.6663 4.23486 14.9756C4.23486 15.291 4.30599 15.5786 4.44824 15.8384C4.59049 16.0981 4.80387 16.3053 5.08838 16.46C5.37907 16.6084 5.7347 16.6826 6.15527 16.6826C6.68099 16.6826 7.14486 16.5713 7.54688 16.3486C7.94889 16.126 8.26742 15.8538 8.50244 15.5322C8.74365 15.2106 8.87354 14.8983 8.89209 14.5952L9.625 15.4209C9.58171 15.6807 9.46419 15.9683 9.27246 16.2837C9.08073 16.5991 8.82406 16.9022 8.50244 17.1929C8.18701 17.4774 7.80973 17.7155 7.37061 17.9072C6.93766 18.0928 6.44906 18.1855 5.90479 18.1855C5.22445 18.1855 4.6276 18.0526 4.11426 17.7866C3.6071 17.5207 3.21126 17.165 2.92676 16.7197C2.64844 16.2682 2.50928 15.7642 2.50928 15.2075C2.50928 14.6694 2.61442 14.1963 2.82471 13.7881C3.03499 13.3737 3.33805 13.0304 3.73389 12.7583C4.12972 12.48 4.60596 12.2697 5.1626 12.1274C5.71924 11.9852 6.34082 11.9141 7.02734 11.9141H9.02197Z" fill="#D5DDD8"/>
<path d="M13.1318 3.75H14.8574V16.0518L14.709 18H13.1318V3.75ZM21.6392 12.8975V13.0923C21.6392 13.8221 21.5526 14.4993 21.3794 15.124C21.2062 15.7425 20.9526 16.2806 20.6187 16.7383C20.2847 17.196 19.8765 17.5516 19.394 17.8052C18.9116 18.0588 18.3581 18.1855 17.7334 18.1855C17.0964 18.1855 16.5366 18.0773 16.0542 17.8608C15.578 17.6382 15.1759 17.3197 14.8481 16.9053C14.5203 16.4909 14.2575 15.9899 14.0596 15.4023C13.8678 14.8148 13.7349 14.153 13.6606 13.417V12.5635C13.7349 11.8213 13.8678 11.1564 14.0596 10.5688C14.2575 9.98128 14.5203 9.48031 14.8481 9.06592C15.1759 8.64535 15.578 8.32682 16.0542 8.11035C16.5304 7.8877 17.084 7.77637 17.7148 7.77637C18.3457 7.77637 18.9054 7.90007 19.394 8.14746C19.8826 8.38867 20.2909 8.73503 20.6187 9.18652C20.9526 9.63802 21.2062 10.1792 21.3794 10.8101C21.5526 11.4347 21.6392 12.1305 21.6392 12.8975ZM19.9136 13.0923V12.8975C19.9136 12.3965 19.8672 11.9264 19.7744 11.4873C19.6816 11.042 19.5332 10.6523 19.3291 10.3184C19.125 9.97819 18.856 9.71224 18.522 9.52051C18.188 9.32259 17.7767 9.22363 17.2881 9.22363C16.8551 9.22363 16.4779 9.29785 16.1562 9.44629C15.8408 9.59473 15.5718 9.79574 15.3491 10.0493C15.1265 10.2967 14.944 10.5812 14.8018 10.9028C14.6657 11.2183 14.5636 11.5461 14.4956 11.8862V14.1221C14.5946 14.555 14.7554 14.9725 14.978 15.3745C15.2069 15.7703 15.5099 16.0951 15.8872 16.3486C16.2707 16.6022 16.7438 16.729 17.3066 16.729C17.7705 16.729 18.1663 16.6362 18.4941 16.4507C18.8281 16.259 19.0972 15.9961 19.3013 15.6621C19.5116 15.3281 19.6662 14.9416 19.7651 14.5024C19.8641 14.0633 19.9136 13.5933 19.9136 13.0923Z" fill="#D5DDD8"/>
<path d="M0 19H1V22.5H23V19H24V23.5H0V19Z" fill="#D5DDD8"/>
</svg>
